<svg id="Layer_1" xmlns="http://www.w3.org/2000/svg" viewBox="0 0 140 69"><style>.st2{fill:#e10177}.st3{fill:#fff}</style><path d="M75.7 15.5l12.1-1.8-1-6.3h-.2l-1.5.2-22 3.3h-.3l1 6.3 11.9-1.7z" fill="none"/><path d="M113.7 47.7v-.4c0-.2 0-.4-.1-.7v-.1-.1l-1-6.4c0-.1 0-.6-.5-3.4l-.1-.6-1.1-7v-.3c-1.5-9.9-3.8-14.6-12.7-14.6-.9 0-2 .1-3.1.2l-19.3 2.9-17.9 2.7c-1.7.4-3.1.8-4.2 1.2h-.1c-.2.1-.3.1-.5.2l-.2.1c-.1 0-.2.1-.3.1-5.3 2.2-7.9 8.2-6.8 15.6v.2l1.9 12.3c.1.6.1 1 .2 1.5.1 1.1.3 1.9.4 3.1.7 5 1.5 8.2 3.1 10.2 1.5 1.9 3.9 2.7 8.2 2.9l16.2-2 19.8-3 11.1-1.9c5.2-2.2 7.6-6.4 7-12.5v-.2z" fill="#fdbf25"/><path class="st2" d="M115.4 47.7v-.3V47.1c0-.3-.1-.5-.1-.8l-1-6.3c0-.4-.2-1.9-.6-4.1l-.1-.8-.7-4.5-.2-1.3c0-.2-.1-.5-.1-.6-.9-6.1-2.1-9.5-4-12-2.2-2.8-5.5-4.1-10.4-4.1-1 0-2.1.1-3.3.2h-.2l-1.5-9.9c-.1-1-.8-1.7-1.7-2.2-.6-.4-1.4-.6-2.1-.5l-6.1.8-25.2 3.7c-.8.1-1.4.5-1.9 1.1-.7.7-1.1 1.6-.9 2.6l1.5 10c-1.5.4-2.7.7-3.7 1.1H53c-.2.1-.3.1-.5.2l-.2.1c-.2.1-.3.2-.4.2-6.1 2.5-9 9.2-7.8 17.4L46 49.9c.1.5.1 1 .2 1.4.1 1.1.3 1.9.4 3.1.8 5.2 1.6 8.7 3.5 11 1.8 2.3 4.7 3.3 9.5 3.5h.1l16.3-2 19.9-3 11.2-1.9h.2c2.9-1.2 5-3 6.4-5.3 1.4-2.4 2-5.4 1.7-9zm-64 16.8c-1.6-2-2.4-5.3-3.1-10.2-.2-1.2-.3-2-.4-3.1-.1-.4-.1-.9-.2-1.5l-1.9-12.3v-.2c-1.1-7.4 1.5-13.4 6.8-15.6.1 0 .2-.1.3-.1l.2-.1c.2-.1.3-.1.5-.2h.1c1.2-.4 2.5-.8 4.2-1.2l17.9-2.7 19.3-2.9c1.1-.1 2.1-.2 3.1-.2 8.9 0 11.2 4.7 12.7 14.6v.3l1.1 7 .1.6c.4 2.8.5 3.3.5 3.4l1 6.4v.2c0 .2.1.4.1.7V48c.6 6.1-1.8 10.3-7 12.5l-11.1 1.9-19.8 3-16.2 2c-4.3-.2-6.7-1-8.2-2.9zm11.7-53.4l22-3.3 1.5-.2h.2l1 6.3-12.1 1.8-12 1.8-1-6.3c.2-.1.3-.1.4-.1zM6.1 44.5c.1 2.8 1.9 3.6 4.5 3.6 1.9 0 3.8-.7 3.8-2.4 0-2.1-3.4-2.5-6.8-3.4-3.4-1-6.9-2.5-6.9-6.7 0-5.1 5.2-7.1 9.6-7.1 4.7 0 9.4 2.3 9.4 7.5h-6.1c.1-2.1-1.9-2.8-3.8-2.8-1.3 0-3 .5-3 2 0 1.8 3.4 2.1 6.8 3.1s6.8 2.5 6.8 6.7c0 5.9-5.1 7.8-10.3 7.8C4.8 52.9 0 50.5 0 44.5h6.1zM41.8 42.7c0 6.8-3.1 10.2-10.3 10.2-7.1 0-10.3-3.4-10.3-10.2V29h6.1v14.1c0 3 1.1 4.6 4.1 4.6 3 0 4.1-1.5 4.1-4.6V29h6.1v13.7z"/><path class="st2" d="M43.3 29h6.3l8.2 14.4h.1V29h5.8v23.4h-6.3l-8.2-14.6H49v14.6h-5.8V29z"/><path class="st3" d="M77.7 34.3v3.4H74v9c0 .8.1 1.4.4 1.7.3.3.9.4 1.7.4h.8c.3 0 .5-.1.7-.1v3.9c-.4.1-.9.1-1.4.1h-1.5c-.8 0-1.5-.1-2.2-.2-.7-.1-1.3-.3-1.8-.6s-1-.7-1.3-1.3c-.2-.6-.4-1.3-.4-2.2V37.6h-3v-3.4h3v-5.4h5v5.4h3.7zM79.6 31.5v-4.1h5v4.1h-5zm5 2.8v18.2h-5V34.3h5zM91.3 34.3v2.3h.1c.6-1 1.4-1.7 2.3-2.1.9-.4 2-.7 3.1-.7 1.4 0 2.7.3 3.7.8s1.9 1.3 2.6 2.1c.7.9 1.2 1.9 1.5 3.1.3 1.2.5 2.4.5 3.7 0 1.2-.2 2.4-.5 3.5s-.8 2.1-1.5 3c-.7.9-1.5 1.6-2.5 2.1s-2.2.8-3.5.8c-1.1 0-2.2-.2-3.1-.7-1-.5-1.7-1.1-2.4-2h-.1v8.6h-5V34.3h4.8zm6.5 14.4c.6-.3 1-.8 1.4-1.3.3-.5.6-1.1.7-1.8.1-.7.2-1.4.2-2.1 0-.7-.1-1.4-.2-2.1-.2-.7-.4-1.3-.8-1.9-.4-.6-.8-1-1.4-1.3-.6-.3-1.2-.5-2-.5s-1.5.2-2.1.5c-.6.3-1 .8-1.3 1.3-.3.5-.6 1.2-.7 1.9-.1.7-.2 1.4-.2 2.2 0 .7.1 1.4.2 2.1.2.7.4 1.3.7 1.8.3.5.8 1 1.4 1.3.6.3 1.3.5 2.1.5.8-.1 1.5-.3 2-.6zM111.8 47v5.4h-5.6V47h5.6z"/><g><path class="st2" d="M119.3 34.3v2.5h.1c.6-1.1 1.5-1.8 2.5-2.3 1-.5 2.1-.7 3.1-.7 1.3 0 2.5.2 3.3.5.9.4 1.5.9 2 1.5s.8 1.4 1 2.4c.2.9.3 2 .3 3.1v11.2h-5V42.2c0-1.5-.2-2.6-.7-3.4-.5-.7-1.3-1.1-2.5-1.1-1.4 0-2.4.4-3 1.2-.6.8-.9 2.1-.9 4v9.5h-5.1V34.3h4.9z"/></g><g><path class="st2" d="M140 27.3v25.1h-5V27.3h5z"/></g></svg>